<?xml version="1.0" encoding="UTF-8" standalone="no"?>
<!-- Created with Inkscape (http://www.inkscape.org/) -->

<svg
   version="1.1"
   id="svg355424"
   width="114.16399"
   height="96.650665"
   viewBox="0 0 114.16399 96.650665"
   xmlns="http://www.w3.org/2000/svg"
   xmlns:svg="http://www.w3.org/2000/svg">
  <defs
     id="defs355428">
    <radialGradient
       fx="0"
       fy="0"
       cx="0"
       cy="0"
       r="1"
       gradientUnits="userSpaceOnUse"
       gradientTransform="matrix(2.6356127,-2.6356127,-2.6356127,-2.6356127,213.11681,578.44269)"
       spreadMethod="pad"
       id="radialGradient362818">
      <stop
         style="stop-opacity:1;stop-color:#0067a0"
         offset="0"
         id="stop362814" />
      <stop
         style="stop-opacity:1;stop-color:#01426a"
         offset="1"
         id="stop362816" />
    </radialGradient>
    <linearGradient
       x1="0"
       y1="0"
       x2="1"
       y2="0"
       gradientUnits="userSpaceOnUse"
       gradientTransform="matrix(0,-17.068827,-17.068827,0,212.78072,566.76892)"
       spreadMethod="pad"
       id="linearGradient362838">
      <stop
         style="stop-opacity:1;stop-color:#0067a0"
         offset="0"
         id="stop362834" />
      <stop
         style="stop-opacity:1;stop-color:#01426a"
         offset="1"
         id="stop362836" />
    </linearGradient>
    <linearGradient
       x1="0"
       y1="0"
       x2="1"
       y2="0"
       gradientUnits="userSpaceOnUse"
       gradientTransform="matrix(0,-17.068827,-17.068827,0,210.04178,566.76892)"
       spreadMethod="pad"
       id="linearGradient362858">
      <stop
         style="stop-opacity:1;stop-color:#0067a0"
         offset="0"
         id="stop362854" />
      <stop
         style="stop-opacity:1;stop-color:#01426a"
         offset="1"
         id="stop362856" />
    </linearGradient>
    <linearGradient
       x1="0"
       y1="0"
       x2="1"
       y2="0"
       gradientUnits="userSpaceOnUse"
       gradientTransform="matrix(0,5.1460962,5.1460962,0,210.04178,566.888)"
       spreadMethod="pad"
       id="linearGradient362880">
      <stop
         style="stop-opacity:1;stop-color:#01426a"
         offset="0"
         id="stop362874" />
      <stop
         style="stop-opacity:1;stop-color:#014670"
         offset="0.115565"
         id="stop362876" />
      <stop
         style="stop-opacity:1;stop-color:#0067a0"
         offset="1"
         id="stop362878" />
    </linearGradient>
    <linearGradient
       x1="0"
       y1="0"
       x2="1"
       y2="0"
       gradientUnits="userSpaceOnUse"
       gradientTransform="matrix(9.6171265,0,0,-9.6171265,200.26791,562.16669)"
       spreadMethod="pad"
       id="linearGradient362900">
      <stop
         style="stop-opacity:1;stop-color:#007b5f"
         offset="0"
         id="stop362896" />
      <stop
         style="stop-opacity:1;stop-color:#00b388"
         offset="1"
         id="stop362898" />
    </linearGradient>
    <linearGradient
       x1="0"
       y1="0"
       x2="1"
       y2="0"
       gradientUnits="userSpaceOnUse"
       gradientTransform="matrix(9.8249063,0,0,-9.8249063,217.55853,569.62134)"
       spreadMethod="pad"
       id="linearGradient362920">
      <stop
         style="stop-opacity:1;stop-color:#fbdb65"
         offset="0"
         id="stop362916" />
      <stop
         style="stop-opacity:1;stop-color:#ffcd00"
         offset="1"
         id="stop362918" />
    </linearGradient>
    <linearGradient
       x1="0"
       y1="0"
       x2="1"
       y2="0"
       gradientUnits="userSpaceOnUse"
       gradientTransform="matrix(0,-9.8153658,-9.8153658,0,205.32608,557.15552)"
       spreadMethod="pad"
       id="linearGradient362940">
      <stop
         style="stop-opacity:1;stop-color:#01426a"
         offset="0"
         id="stop362936" />
      <stop
         style="stop-opacity:1;stop-color:#0067a0"
         offset="1"
         id="stop362938" />
    </linearGradient>
    <linearGradient
       x1="0"
       y1="0"
       x2="1"
       y2="0"
       gradientUnits="userSpaceOnUse"
       gradientTransform="matrix(0,-9.8153658,-9.8153658,0,205.07201,557.15552)"
       spreadMethod="pad"
       id="linearGradient362960">
      <stop
         style="stop-opacity:1;stop-color:#01426a"
         offset="0"
         id="stop362956" />
      <stop
         style="stop-opacity:1;stop-color:#0067a0"
         offset="1"
         id="stop362958" />
    </linearGradient>
    <linearGradient
       x1="0"
       y1="0"
       x2="1"
       y2="0"
       gradientUnits="userSpaceOnUse"
       gradientTransform="matrix(0,6.3376637,6.3376637,0,205.07201,541.08661)"
       spreadMethod="pad"
       id="linearGradient362982">
      <stop
         style="stop-opacity:1;stop-color:#0067a0"
         offset="0"
         id="stop362976" />
      <stop
         style="stop-opacity:1;stop-color:#015180"
         offset="0.441667"
         id="stop362978" />
      <stop
         style="stop-opacity:1;stop-color:#01426a"
         offset="1"
         id="stop362980" />
    </linearGradient>
    <linearGradient
       x1="0"
       y1="0"
       x2="1"
       y2="0"
       gradientUnits="userSpaceOnUse"
       gradientTransform="matrix(0,16.847198,16.847198,0,214.05261,521.19305)"
       spreadMethod="pad"
       id="linearGradient363002">
      <stop
         style="stop-opacity:1;stop-color:#01426a"
         offset="0"
         id="stop362998" />
      <stop
         style="stop-opacity:1;stop-color:#0067a0"
         offset="1"
         id="stop363000" />
    </linearGradient>
    <linearGradient
       x1="0"
       y1="0"
       x2="1"
       y2="0"
       gradientUnits="userSpaceOnUse"
       gradientTransform="matrix(0,16.847198,16.847198,0,214.05261,521.19305)"
       spreadMethod="pad"
       id="linearGradient363022">
      <stop
         style="stop-opacity:1;stop-color:#01426a"
         offset="0"
         id="stop363018" />
      <stop
         style="stop-opacity:1;stop-color:#0067a0"
         offset="1"
         id="stop363020" />
    </linearGradient>
    <linearGradient
       x1="0"
       y1="0"
       x2="1"
       y2="0"
       gradientUnits="userSpaceOnUse"
       gradientTransform="matrix(0,16.847198,16.847198,0,214.05261,521.19305)"
       spreadMethod="pad"
       id="linearGradient363042">
      <stop
         style="stop-opacity:1;stop-color:#01426a"
         offset="0"
         id="stop363038" />
      <stop
         style="stop-opacity:1;stop-color:#0067a0"
         offset="1"
         id="stop363040" />
    </linearGradient>
    <linearGradient
       x1="0"
       y1="0"
       x2="1"
       y2="0"
       gradientUnits="userSpaceOnUse"
       gradientTransform="matrix(0,16.847198,16.847198,0,214.05261,521.19305)"
       spreadMethod="pad"
       id="linearGradient363062">
      <stop
         style="stop-opacity:1;stop-color:#01426a"
         offset="0"
         id="stop363058" />
      <stop
         style="stop-opacity:1;stop-color:#0067a0"
         offset="1"
         id="stop363060" />
    </linearGradient>
    <linearGradient
       x1="0"
       y1="0"
       x2="1"
       y2="0"
       gradientUnits="userSpaceOnUse"
       gradientTransform="matrix(0,16.847198,16.847198,0,214.05261,521.19305)"
       spreadMethod="pad"
       id="linearGradient363082">
      <stop
         style="stop-opacity:1;stop-color:#01426a"
         offset="0"
         id="stop363078" />
      <stop
         style="stop-opacity:1;stop-color:#0067a0"
         offset="1"
         id="stop363080" />
    </linearGradient>
    <linearGradient
       x1="0"
       y1="0"
       x2="1"
       y2="0"
       gradientUnits="userSpaceOnUse"
       gradientTransform="matrix(0,16.847198,16.847198,0,214.05261,521.19305)"
       spreadMethod="pad"
       id="linearGradient363102">
      <stop
         style="stop-opacity:1;stop-color:#01426a"
         offset="0"
         id="stop363098" />
      <stop
         style="stop-opacity:1;stop-color:#0067a0"
         offset="1"
         id="stop363100" />
    </linearGradient>
    <linearGradient
       x1="0"
       y1="0"
       x2="1"
       y2="0"
       gradientUnits="userSpaceOnUse"
       gradientTransform="matrix(0,16.847198,16.847198,0,214.05261,521.19305)"
       spreadMethod="pad"
       id="linearGradient363122">
      <stop
         style="stop-opacity:1;stop-color:#01426a"
         offset="0"
         id="stop363118" />
      <stop
         style="stop-opacity:1;stop-color:#0067a0"
         offset="1"
         id="stop363120" />
    </linearGradient>
    <linearGradient
       x1="0"
       y1="0"
       x2="1"
       y2="0"
       gradientUnits="userSpaceOnUse"
       gradientTransform="matrix(0,16.847198,16.847198,0,214.05261,521.19305)"
       spreadMethod="pad"
       id="linearGradient363142">
      <stop
         style="stop-opacity:1;stop-color:#01426a"
         offset="0"
         id="stop363138" />
      <stop
         style="stop-opacity:1;stop-color:#0067a0"
         offset="1"
         id="stop363140" />
    </linearGradient>
    <linearGradient
       x1="0"
       y1="0"
       x2="1"
       y2="0"
       gradientUnits="userSpaceOnUse"
       gradientTransform="matrix(0,16.847198,16.847198,0,214.05261,521.19305)"
       spreadMethod="pad"
       id="linearGradient363162">
      <stop
         style="stop-opacity:1;stop-color:#01426a"
         offset="0"
         id="stop363158" />
      <stop
         style="stop-opacity:1;stop-color:#0067a0"
         offset="1"
         id="stop363160" />
    </linearGradient>
    <linearGradient
       x1="0"
       y1="0"
       x2="1"
       y2="0"
       gradientUnits="userSpaceOnUse"
       gradientTransform="matrix(0,16.847198,16.847198,0,214.05261,521.19305)"
       spreadMethod="pad"
       id="linearGradient363182">
      <stop
         style="stop-opacity:1;stop-color:#01426a"
         offset="0"
         id="stop363178" />
      <stop
         style="stop-opacity:1;stop-color:#0067a0"
         offset="1"
         id="stop363180" />
    </linearGradient>
    <linearGradient
       x1="0"
       y1="0"
       x2="1"
       y2="0"
       gradientUnits="userSpaceOnUse"
       gradientTransform="matrix(0,16.847198,16.847198,0,214.05261,521.19305)"
       spreadMethod="pad"
       id="linearGradient363202">
      <stop
         style="stop-opacity:1;stop-color:#01426a"
         offset="0"
         id="stop363198" />
      <stop
         style="stop-opacity:1;stop-color:#0067a0"
         offset="1"
         id="stop363200" />
    </linearGradient>
    <linearGradient
       x1="0"
       y1="0"
       x2="1"
       y2="0"
       gradientUnits="userSpaceOnUse"
       gradientTransform="matrix(0,16.847198,16.847198,0,214.05261,521.19305)"
       spreadMethod="pad"
       id="linearGradient363222">
      <stop
         style="stop-opacity:1;stop-color:#01426a"
         offset="0"
         id="stop363218" />
      <stop
         style="stop-opacity:1;stop-color:#0067a0"
         offset="1"
         id="stop363220" />
    </linearGradient>
    <linearGradient
       x1="0"
       y1="0"
       x2="1"
       y2="0"
       gradientUnits="userSpaceOnUse"
       gradientTransform="matrix(0,9.1872635,9.1872635,0,213.50589,508.31436)"
       spreadMethod="pad"
       id="linearGradient363242">
      <stop
         style="stop-opacity:1;stop-color:#01426a"
         offset="0"
         id="stop363238" />
      <stop
         style="stop-opacity:1;stop-color:#0067a0"
         offset="1"
         id="stop363240" />
    </linearGradient>
    <linearGradient
       x1="0"
       y1="0"
       x2="1"
       y2="0"
       gradientUnits="userSpaceOnUse"
       gradientTransform="matrix(0,9.1872635,9.1872635,0,213.50589,508.31436)"
       spreadMethod="pad"
       id="linearGradient363262">
      <stop
         style="stop-opacity:1;stop-color:#01426a"
         offset="0"
         id="stop363258" />
      <stop
         style="stop-opacity:1;stop-color:#0067a0"
         offset="1"
         id="stop363260" />
    </linearGradient>
    <linearGradient
       x1="0"
       y1="0"
       x2="1"
       y2="0"
       gradientUnits="userSpaceOnUse"
       gradientTransform="matrix(0,9.1872635,9.1872635,0,213.50589,508.31436)"
       spreadMethod="pad"
       id="linearGradient363282">
      <stop
         style="stop-opacity:1;stop-color:#01426a"
         offset="0"
         id="stop363278" />
      <stop
         style="stop-opacity:1;stop-color:#0067a0"
         offset="1"
         id="stop363280" />
    </linearGradient>
    <linearGradient
       x1="0"
       y1="0"
       x2="1"
       y2="0"
       gradientUnits="userSpaceOnUse"
       gradientTransform="matrix(0,9.1872635,9.1872635,0,213.50589,508.31436)"
       spreadMethod="pad"
       id="linearGradient363302">
      <stop
         style="stop-opacity:1;stop-color:#01426a"
         offset="0"
         id="stop363298" />
      <stop
         style="stop-opacity:1;stop-color:#0067a0"
         offset="1"
         id="stop363300" />
    </linearGradient>
    <linearGradient
       x1="0"
       y1="0"
       x2="1"
       y2="0"
       gradientUnits="userSpaceOnUse"
       gradientTransform="matrix(0,9.1872635,9.1872635,0,213.50589,508.31436)"
       spreadMethod="pad"
       id="linearGradient363322">
      <stop
         style="stop-opacity:1;stop-color:#01426a"
         offset="0"
         id="stop363318" />
      <stop
         style="stop-opacity:1;stop-color:#0067a0"
         offset="1"
         id="stop363320" />
    </linearGradient>
    <linearGradient
       x1="0"
       y1="0"
       x2="1"
       y2="0"
       gradientUnits="userSpaceOnUse"
       gradientTransform="matrix(0,9.1872635,9.1872635,0,213.50589,508.31436)"
       spreadMethod="pad"
       id="linearGradient363342">
      <stop
         style="stop-opacity:1;stop-color:#01426a"
         offset="0"
         id="stop363338" />
      <stop
         style="stop-opacity:1;stop-color:#0067a0"
         offset="1"
         id="stop363340" />
    </linearGradient>
    <linearGradient
       x1="0"
       y1="0"
       x2="1"
       y2="0"
       gradientUnits="userSpaceOnUse"
       gradientTransform="matrix(0,9.1872635,9.1872635,0,213.50589,508.31436)"
       spreadMethod="pad"
       id="linearGradient363362">
      <stop
         style="stop-opacity:1;stop-color:#01426a"
         offset="0"
         id="stop363358" />
      <stop
         style="stop-opacity:1;stop-color:#0067a0"
         offset="1"
         id="stop363360" />
    </linearGradient>
    <linearGradient
       x1="0"
       y1="0"
       x2="1"
       y2="0"
       gradientUnits="userSpaceOnUse"
       gradientTransform="matrix(0,9.1872635,9.1872635,0,213.50589,508.31436)"
       spreadMethod="pad"
       id="linearGradient363382">
      <stop
         style="stop-opacity:1;stop-color:#01426a"
         offset="0"
         id="stop363378" />
      <stop
         style="stop-opacity:1;stop-color:#0067a0"
         offset="1"
         id="stop363380" />
    </linearGradient>
    <linearGradient
       x1="0"
       y1="0"
       x2="1"
       y2="0"
       gradientUnits="userSpaceOnUse"
       gradientTransform="matrix(0,9.1872635,9.1872635,0,213.50589,508.31436)"
       spreadMethod="pad"
       id="linearGradient363402">
      <stop
         style="stop-opacity:1;stop-color:#01426a"
         offset="0"
         id="stop363398" />
      <stop
         style="stop-opacity:1;stop-color:#0067a0"
         offset="1"
         id="stop363400" />
    </linearGradient>
    <linearGradient
       x1="0"
       y1="0"
       x2="1"
       y2="0"
       gradientUnits="userSpaceOnUse"
       gradientTransform="matrix(0,9.1872635,9.1872635,0,213.50589,508.31436)"
       spreadMethod="pad"
       id="linearGradient363422">
      <stop
         style="stop-opacity:1;stop-color:#01426a"
         offset="0"
         id="stop363418" />
      <stop
         style="stop-opacity:1;stop-color:#0067a0"
         offset="1"
         id="stop363420" />
    </linearGradient>
  </defs>
  <g
     id="g355430"
     transform="matrix(1.3333333,0,0,-1.3333333,-228.32133,774.40398)">
    <g
       id="TRT8_Vertical">
      <g
         id="g362802">
        <g
           id="g362804">
          <g
             id="g362810">
            <g
               id="g362812">
              <path
                 d="m 211.253,577.076 c 0,-2.059 1.669,-3.727 3.727,-3.727 v 0 c 2.06,0 3.728,1.668 3.728,3.727 v 0 c 0,2.059 -1.668,3.727 -3.728,3.727 v 0 c -2.058,0 -3.727,-1.668 -3.727,-3.727"
                 style="fill:url(#radialGradient362818);stroke:none"
                 id="path362820" />
            </g>
          </g>
        </g>
      </g>
      <g
         id="g362822">
        <g
           id="g362824">
          <g
             id="g362830">
            <g
               id="g362832">
              <path
                 d="m 212.526,562.167 v -12.425 h 4.97 v 7.455 c 0,5.317 -4.18,9.647 -9.43,9.914 v 0 c 2.505,-0.255 4.46,-2.371 4.46,-4.944"
                 style="fill:url(#linearGradient362838);stroke:none"
                 id="path362840" />
            </g>
          </g>
        </g>
      </g>
      <g
         id="g362842">
        <g
           id="g362844">
          <g
             id="g362850">
            <g
               id="g362852">
              <path
                 d="m 202.587,572.107 v -4.97 h 4.969 c 0.172,0 0.342,-0.009 0.51,-0.026 v 0 c 5.25,-0.267 9.43,-4.597 9.43,-9.914 v 0 4.97 c 0,5.489 -4.45,9.94 -9.94,9.94 v 0 z"
                 style="fill:url(#linearGradient362858);stroke:none"
                 id="path362860" />
            </g>
          </g>
        </g>
      </g>
      <g
         id="g362862">
        <g
           id="g362864">
          <g
             id="g362870">
            <g
               id="g362872">
              <path
                 d="m 202.587,572.107 v -4.97 h 4.969 c 0.172,0 0.342,-0.009 0.51,-0.026 v 0 c 5.25,-0.267 9.43,-4.597 9.43,-9.914 v 0 4.97 c 0,5.489 -4.45,9.94 -9.94,9.94 v 0 z"
                 style="fill:url(#linearGradient362880);stroke:none"
                 id="path362882" />
            </g>
          </g>
        </g>
      </g>
      <g
         id="g362884">
        <g
           id="g362886">
          <g
             id="g362892">
            <g
               id="g362894">
              <path
                 d="m 200.102,559.681 h 9.94 v 4.97 h -9.94 z"
                 style="fill:url(#linearGradient362900);stroke:none"
                 id="path362902" />
            </g>
          </g>
        </g>
      </g>
      <g
         id="g362904">
        <g
           id="g362906">
          <g
             id="g362912">
            <g
               id="g362914">
              <path
                 d="m 217.496,567.137 h 9.94 v 4.97 h -9.94 z"
                 style="fill:url(#linearGradient362920);stroke:none"
                 id="path362922" />
            </g>
          </g>
        </g>
      </g>
      <g
         id="g362924">
        <g
           id="g362926">
          <g
             id="g362932">
            <g
               id="g362934">
              <path
                 d="m 205.072,557.197 v -6.213 c 0,-2.573 -1.955,-4.689 -4.462,-4.943 v 0 c 5.252,0.265 9.432,4.596 9.432,9.913 v 0 1.243 z"
                 style="fill:url(#linearGradient362940);stroke:none"
                 id="path362942" />
            </g>
          </g>
        </g>
      </g>
      <g
         id="g362944">
        <g
           id="g362946">
          <g
             id="g362952">
            <g
               id="g362954">
              <path
                 d="m 200.61,546.041 c -0.167,-0.017 -0.337,-0.026 -0.508,-0.026 v 0 -4.97 c 5.489,0 9.94,4.45 9.94,9.939 v 0 4.97 c 0,-5.317 -4.18,-9.648 -9.432,-9.913"
                 style="fill:url(#linearGradient362960);stroke:none"
                 id="path362962" />
            </g>
          </g>
        </g>
      </g>
      <g
         id="g362964">
        <g
           id="g362966">
          <g
             id="g362972">
            <g
               id="g362974">
              <path
                 d="m 200.61,546.041 c -0.167,-0.017 -0.337,-0.026 -0.508,-0.026 v 0 -4.97 c 5.489,0 9.94,4.45 9.94,9.939 v 0 4.97 c 0,-5.317 -4.18,-9.648 -9.432,-9.913"
                 style="fill:url(#linearGradient362982);stroke:none"
                 id="path362984" />
            </g>
          </g>
        </g>
      </g>
      <g
         id="g362986">
        <g
           id="g362988">
          <g
             id="g362994">
            <g
               id="g362996">
              <path
                 d="m 171.241,535.492 v -1.436 h 2.609 v -12.721 h 1.578 v 12.721 h 2.609 v 1.436 z"
                 style="fill:url(#linearGradient363002);stroke:none"
                 id="path363004" />
            </g>
          </g>
        </g>
      </g>
      <g
         id="g363006">
        <g
           id="g363008">
          <g
             id="g363014">
            <g
               id="g363016">
              <path
                 d="m 179.128,535.492 v -14.157 h 1.578 v 6.047 h 1.112 c 1.315,0 2.063,-0.506 2.063,-2.103 v 0 -2.225 c 0,-0.951 0.081,-1.315 0.264,-1.719 v 0 h 1.597 c -0.264,0.485 -0.284,1.072 -0.284,1.698 v 0 2.205 c 0,1.517 -0.485,2.569 -1.78,2.953 v 0 c 1.213,0.384 1.761,1.355 1.761,2.912 v 0 1.152 c 0,2.105 -0.931,3.237 -3.156,3.237 v 0 z m 1.578,-1.436 h 1.536 c 1.174,0 1.639,-0.667 1.639,-1.942 v 0 -1.354 c 0,-1.538 -0.748,-1.942 -2.002,-1.942 v 0 h -1.173 z"
                 style="fill:url(#linearGradient363022);stroke:none"
                 id="path363024" />
            </g>
          </g>
        </g>
      </g>
      <g
         id="g363026">
        <g
           id="g363028">
          <g
             id="g363034">
            <g
               id="g363036">
              <path
                 d="m 186.55,535.492 v -1.436 h 2.608 v -12.721 h 1.578 v 12.721 h 2.608 v 1.436 z"
                 style="fill:url(#linearGradient363042);stroke:none"
                 id="path363044" />
            </g>
          </g>
        </g>
      </g>
      <g
         id="g363046">
        <g
           id="g363048">
          <g
             id="g363054">
            <g
               id="g363056">
              <path
                 d="m 193.729,527.706 h 3.863 v 1.415 h -3.863 z"
                 style="fill:url(#linearGradient363062);stroke:none"
                 id="path363064" />
            </g>
          </g>
        </g>
      </g>
      <g
         id="g363066">
        <g
           id="g363068">
          <g
             id="g363074">
            <g
               id="g363076">
              <path
                 d="m 198.966,532.135 v -0.446 c 0,-1.435 0.485,-2.467 1.639,-2.912 v 0 c -1.194,-0.485 -1.639,-1.556 -1.639,-2.993 v 0 -1.052 c 0,-2.184 1.133,-3.538 3.338,-3.538 v 0 c 2.204,0 3.337,1.354 3.337,3.538 v 0 1.052 c 0,1.416 -0.446,2.529 -1.618,2.993 v 0 c 1.112,0.425 1.618,1.477 1.618,2.912 v 0 0.446 c 0,2.183 -1.154,3.499 -3.337,3.499 v 0 c -2.185,0 -3.338,-1.316 -3.338,-3.499 m 1.558,-0.728 v 0.687 c 0,1.457 0.667,2.123 1.78,2.123 v 0 c 1.112,0 1.779,-0.666 1.779,-2.123 v 0 -0.687 c 0,-1.375 -0.667,-1.982 -1.779,-1.982 v 0 c -1.113,0 -1.78,0.607 -1.78,1.982 m 0,-6.635 v 1.193 c 0,1.376 0.607,2.043 1.78,2.043 v 0 c 1.173,0 1.779,-0.667 1.779,-2.043 v 0 -1.193 c -0.021,-1.455 -0.648,-2.143 -1.779,-2.143 v 0 c -1.133,0 -1.78,0.688 -1.78,2.143"
                 style="fill:url(#linearGradient363082);stroke:none"
                 id="path363084" />
            </g>
          </g>
        </g>
      </g>
      <g
         id="g363086">
        <g
           id="g363088">
          <g
             id="g363094">
            <g
               id="g363096">
              <path
                 d="m 207.238,533.368 v -0.303 h 0.951 v 0.364 c 0,0.788 0.302,1.234 1.011,1.234 v 0 c 0.647,0 0.868,-0.446 0.868,-1.153 v 0 -1.011 c -1.637,-0.041 -3.135,-0.505 -3.135,-2.428 v 0 -0.08 c 0,-1.274 0.547,-2.002 1.639,-2.002 v 0 c 0.808,0 1.335,0.465 1.577,1.213 v 0 l 0.061,-1.113 h 0.87 v 5.279 c 0,1.335 -0.485,2.225 -1.841,2.225 v 0 c -1.396,0 -2.001,-0.87 -2.001,-2.225 m 0.727,-3.297 v 0.141 c 0,0.952 0.79,1.457 2.103,1.519 v 0 -1.6 c -0.08,-0.706 -0.425,-1.192 -1.112,-1.192 v 0 c -0.647,0 -0.991,0.364 -0.991,1.132 m -1.011,-4.145 h 4.126 v 1.011 h -4.126 z"
                 style="fill:url(#linearGradient363102);stroke:none"
                 id="path363104" />
            </g>
          </g>
        </g>
      </g>
      <g
         id="g363106">
        <g
           id="g363108">
          <g
             id="g363114">
            <g
               id="g363116">
              <path
                 d="m 215.77,535.492 v -14.157 h 1.577 v 6.047 h 1.114 c 1.314,0 2.062,-0.506 2.062,-2.103 v 0 -2.225 c 0,-0.951 0.081,-1.315 0.263,-1.719 v 0 h 1.599 c -0.264,0.485 -0.285,1.072 -0.285,1.698 v 0 2.205 c 0,1.517 -0.485,2.569 -1.779,2.953 v 0 c 1.213,0.384 1.76,1.355 1.76,2.912 v 0 1.152 c 0,2.105 -0.93,3.237 -3.155,3.237 v 0 z m 1.577,-1.436 h 1.537 c 1.175,0 1.639,-0.667 1.639,-1.942 v 0 -1.354 c 0,-1.538 -0.748,-1.942 -2.001,-1.942 v 0 h -1.175 z"
                 style="fill:url(#linearGradient363122);stroke:none"
                 id="path363124" />
            </g>
          </g>
        </g>
      </g>
      <g
         id="g363126">
        <g
           id="g363128">
          <g
             id="g363134">
            <g
               id="g363136">
              <path
                 d="m 223.738,535.492 v -14.157 h 5.824 v 1.435 h -4.247 v 5.037 h 3.46 v 1.415 h -3.46 v 4.834 h 4.247 v 1.436 z"
                 style="fill:url(#linearGradient363142);stroke:none"
                 id="path363144" />
            </g>
          </g>
        </g>
      </g>
      <g
         id="g363146">
        <g
           id="g363148">
          <g
             id="g363154">
            <g
               id="g363156">
              <path
                 d="m 230.898,532.075 v -7.322 c 0,-2.145 1.01,-3.559 3.174,-3.559 v 0 c 2.185,0 3.196,1.414 3.196,3.559 v 0 4.166 h -2.954 v -1.416 h 1.457 v -2.831 c 0,-1.274 -0.506,-2.043 -1.658,-2.043 v 0 c -1.133,0 -1.659,0.769 -1.659,2.043 v 0 7.483 c 0,1.274 0.526,2.043 1.659,2.043 v 0 c 1.152,0 1.658,-0.769 1.658,-2.043 v 0 -1.295 h 1.497 v 1.215 c 0,2.142 -1.011,3.559 -3.196,3.559 v 0 c -2.164,0 -3.174,-1.417 -3.174,-3.559"
                 style="fill:url(#linearGradient363162);stroke:none"
                 id="path363164" />
            </g>
          </g>
        </g>
      </g>
      <g
         id="g363166">
        <g
           id="g363168">
          <g
             id="g363174">
            <g
               id="g363176">
              <path
                 d="m 238.764,521.335 h 1.577 v 14.157 h -1.577 z"
                 style="fill:url(#linearGradient363182);stroke:none"
                 id="path363184" />
            </g>
          </g>
        </g>
      </g>
      <g
         id="g363186">
        <g
           id="g363188">
          <g
             id="g363194">
            <g
               id="g363196">
              <path
                 d="m 246.267,537.433 c -0.607,0 -1.031,0.607 -1.862,0.607 v 0 c -0.626,-0.021 -1.152,-0.344 -1.475,-1.173 v 0 l 0.788,-0.545 c 0.222,0.464 0.485,0.605 0.85,0.605 v 0 c 0.626,0 1.051,-0.605 1.86,-0.586 v 0 c 0.608,0 1.112,0.365 1.437,1.153 v 0 l -0.79,0.546 c -0.202,-0.425 -0.465,-0.587 -0.808,-0.607 m -2.003,-1.941 -2.71,-14.157 h 1.457 l 0.545,2.851 h 3.579 l 0.547,-2.851 h 1.577 l -2.709,14.157 z m 1.052,-1.78 1.597,-8.17 h -3.154 z"
                 style="fill:url(#linearGradient363202);stroke:none"
                 id="path363204" />
            </g>
          </g>
        </g>
      </g>
      <g
         id="g363206">
        <g
           id="g363208">
          <g
             id="g363214">
            <g
               id="g363216">
              <path
                 d="m 250.371,532.075 v -7.322 c 0,-2.145 1.073,-3.559 3.236,-3.559 v 0 c 2.184,0 3.257,1.414 3.257,3.559 v 0 7.322 c 0,2.163 -1.073,3.559 -3.257,3.559 v 0 c -2.163,0 -3.236,-1.396 -3.236,-3.559 m 1.558,-7.403 v 7.483 c 0,1.274 0.545,2.043 1.678,2.043 v 0 c 1.152,0 1.679,-0.769 1.679,-2.043 v 0 -7.483 c 0,-1.294 -0.527,-2.043 -1.679,-2.043 v 0 c -1.133,0 -1.678,0.749 -1.678,2.043"
                 style="fill:url(#linearGradient363222);stroke:none"
                 id="path363224" />
            </g>
          </g>
        </g>
      </g>
      <g
         id="g363226">
        <g
           id="g363228">
          <g
             id="g363234">
            <g
               id="g363236">
              <path
                 d="m 185.891,517.478 c -0.296,-0.016 -0.588,-0.036 -0.877,-0.061 v 0 -6.817 c 0.125,-0.02 0.247,-0.033 0.368,-0.038 v 0 c 0.119,-0.007 0.229,-0.01 0.33,-0.01 v 0 c 0.107,0 0.216,0.003 0.331,0.01 v 0 c 0.113,0.005 0.229,0.018 0.349,0.038 v 0 2.18 c 0.063,-0.006 0.13,-0.01 0.202,-0.013 v 0 c 0.073,-0.005 0.15,-0.006 0.232,-0.006 v 0 c 0.309,0 0.622,0.032 0.939,0.095 v 0 c 0.319,0.063 0.607,0.182 0.865,0.359 v 0 c 0.257,0.176 0.469,0.417 0.633,0.723 v 0 c 0.163,0.304 0.245,0.703 0.245,1.194 v 0 c 0,0.491 -0.082,0.89 -0.245,1.199 v 0 c -0.164,0.309 -0.376,0.549 -0.638,0.722 v 0 c -0.261,0.173 -0.554,0.291 -0.878,0.354 v 0 c -0.324,0.062 -0.643,0.095 -0.958,0.095 v 0 c -0.303,0 -0.602,-0.008 -0.898,-0.024 m 0.501,-3.556 v 2.409 c 0.113,0.013 0.2,0.021 0.259,0.023 v 0 c 0.061,0.003 0.125,0.006 0.193,0.006 v 0 c 0.158,0 0.312,-0.021 0.464,-0.062 v 0 c 0.151,-0.041 0.284,-0.11 0.401,-0.208 v 0 c 0.117,-0.098 0.21,-0.227 0.279,-0.387 v 0 c 0.069,-0.161 0.104,-0.358 0.104,-0.59 v 0 c 0,-0.228 -0.035,-0.417 -0.104,-0.571 v 0 c -0.069,-0.154 -0.162,-0.279 -0.279,-0.374 v 0 c -0.117,-0.093 -0.25,-0.162 -0.401,-0.202 v 0 c -0.152,-0.041 -0.306,-0.062 -0.464,-0.062 v 0 h -0.24 c -0.066,0 -0.137,0.006 -0.212,0.018"
                 style="fill:url(#linearGradient363242);stroke:none"
                 id="path363244" />
            </g>
          </g>
        </g>
      </g>
      <g
         id="g363246">
        <g
           id="g363248">
          <g
             id="g363254">
            <g
               id="g363256">
              <path
                 d="m 191.303,515.528 c -0.278,-0.044 -0.554,-0.113 -0.832,-0.208 v 0 c 0,-0.2 0.022,-0.373 0.067,-0.518 v 0 c 0.044,-0.146 0.11,-0.3 0.198,-0.463 v 0 c 0.384,0.132 0.746,0.198 1.086,0.198 v 0 c 0.158,0 0.301,-0.01 0.43,-0.029 v 0 c 0.129,-0.018 0.237,-0.055 0.325,-0.108 v 0 c 0.088,-0.054 0.157,-0.127 0.208,-0.222 v 0 c 0.051,-0.095 0.076,-0.217 0.076,-0.368 v 0 -0.113 c -0.221,0.018 -0.422,0.027 -0.605,0.027 v 0 c -0.252,0 -0.503,-0.026 -0.755,-0.08 v 0 c -0.252,-0.054 -0.481,-0.141 -0.685,-0.264 v 0 c -0.204,-0.123 -0.371,-0.286 -0.5,-0.492 v 0 c -0.13,-0.203 -0.194,-0.458 -0.194,-0.759 v 0 c 0,-0.302 0.052,-0.556 0.156,-0.765 v 0 c 0.104,-0.208 0.252,-0.377 0.444,-0.51 v 0 c 0.192,-0.132 0.422,-0.226 0.689,-0.283 v 0 c 0.267,-0.057 0.563,-0.085 0.883,-0.085 v 0 c 0.396,0 0.752,0.032 1.067,0.094 v 0 c 0.314,0.064 0.583,0.129 0.802,0.2 v 0 2.831 c 0,0.693 -0.183,1.196 -0.551,1.511 v 0 c -0.369,0.315 -0.881,0.473 -1.535,0.473 v 0 c -0.239,0 -0.497,-0.023 -0.774,-0.067 m 0.741,-3.989 c -0.11,0.008 -0.214,0.034 -0.312,0.075 v 0 c -0.097,0.041 -0.181,0.105 -0.25,0.193 v 0 c -0.069,0.09 -0.104,0.215 -0.104,0.378 v 0 c 0,0.245 0.09,0.424 0.27,0.533 v 0 c 0.178,0.111 0.422,0.166 0.731,0.166 v 0 c 0.069,0 0.148,-0.004 0.236,-0.014 v 0 c 0.088,-0.009 0.17,-0.02 0.246,-0.033 v 0 -1.246 c -0.07,-0.013 -0.152,-0.027 -0.246,-0.044 v 0 c -0.094,-0.015 -0.188,-0.023 -0.283,-0.023 v 0 c -0.082,0 -0.178,0.005 -0.288,0.015"
                 style="fill:url(#linearGradient363262);stroke:none"
                 id="path363264" />
            </g>
          </g>
        </g>
      </g>
      <g
         id="g363266">
        <g
           id="g363268">
          <g
             id="g363274">
            <g
               id="g363276">
              <path
                 d="m 197.11,515.307 c -0.202,-0.155 -0.372,-0.33 -0.51,-0.525 v 0 c -0.007,0.044 -0.014,0.1 -0.024,0.166 v 0 c -0.01,0.065 -0.021,0.132 -0.033,0.198 v 0 c -0.013,0.066 -0.026,0.129 -0.042,0.189 v 0 c -0.017,0.06 -0.033,0.106 -0.052,0.136 v 0 c -0.089,0.019 -0.179,0.035 -0.27,0.048 v 0 c -0.092,0.012 -0.184,0.018 -0.278,0.018 v 0 c -0.101,0 -0.193,-0.003 -0.279,-0.013 v 0 c -0.085,-0.009 -0.174,-0.024 -0.269,-0.043 v 0 -4.891 c 0.12,-0.019 0.235,-0.032 0.345,-0.038 v 0 c 0.111,-0.006 0.219,-0.009 0.326,-0.009 v 0 c 0.107,0 0.217,0.003 0.331,0.009 v 0 c 0.113,0.006 0.226,0.019 0.339,0.038 v 0 2.323 c 0,0.34 0.04,0.604 0.119,0.793 v 0 c 0.077,0.189 0.177,0.33 0.297,0.424 v 0 c 0.12,0.096 0.246,0.153 0.377,0.176 v 0 c 0.132,0.021 0.252,0.033 0.359,0.033 v 0 h 0.156 c 0.085,0 0.162,-0.007 0.231,-0.019 v 0 c 0.026,0.113 0.043,0.232 0.052,0.358 v 0 c 0.01,0.126 0.015,0.243 0.015,0.351 v 0 c 0,0.087 -0.003,0.172 -0.01,0.254 v 0 c -0.006,0.081 -0.016,0.154 -0.028,0.217 v 0 c -0.037,0.013 -0.098,0.023 -0.18,0.028 v 0 c -0.081,0.006 -0.154,0.009 -0.217,0.009 v 0 c -0.302,0 -0.554,-0.077 -0.755,-0.23"
                 style="fill:url(#linearGradient363282);stroke:none"
                 id="path363284" />
            </g>
          </g>
        </g>
      </g>
      <g
         id="g363286">
        <g
           id="g363288">
          <g
             id="g363294">
            <g
               id="g363296">
              <path
                 d="m 200.792,517.388 -1.058,-1.161 c 0.208,-0.037 0.412,-0.057 0.614,-0.057 v 0 c 0.127,0 0.246,0.007 0.359,0.02 v 0 c 0.114,0.012 0.211,0.025 0.293,0.037 v 0 l 1.426,1.161 c -0.126,0.019 -0.247,0.034 -0.363,0.043 v 0 c -0.117,0.01 -0.257,0.014 -0.422,0.014 v 0 c -0.314,0 -0.597,-0.018 -0.849,-0.057 m -0.86,-1.86 c -0.277,-0.044 -0.553,-0.113 -0.83,-0.208 v 0 c 0,-0.2 0.022,-0.373 0.066,-0.518 v 0 c 0.044,-0.146 0.11,-0.3 0.198,-0.463 v 0 c 0.384,0.132 0.746,0.198 1.086,0.198 v 0 c 0.157,0 0.301,-0.01 0.43,-0.029 v 0 c 0.128,-0.018 0.237,-0.055 0.326,-0.108 v 0 c 0.087,-0.054 0.157,-0.127 0.207,-0.222 v 0 c 0.051,-0.095 0.076,-0.217 0.076,-0.368 v 0 -0.113 c -0.22,0.018 -0.423,0.027 -0.605,0.027 v 0 c -0.251,0 -0.503,-0.026 -0.755,-0.08 v 0 c -0.252,-0.054 -0.479,-0.141 -0.685,-0.264 v 0 c -0.204,-0.123 -0.37,-0.286 -0.5,-0.492 v 0 c -0.13,-0.203 -0.195,-0.458 -0.195,-0.759 v 0 c 0,-0.302 0.053,-0.556 0.157,-0.765 v 0 c 0.104,-0.208 0.252,-0.377 0.445,-0.51 v 0 c 0.191,-0.132 0.42,-0.226 0.688,-0.283 v 0 c 0.268,-0.057 0.563,-0.085 0.883,-0.085 v 0 c 0.396,0 0.752,0.032 1.068,0.094 v 0 c 0.314,0.064 0.581,0.129 0.802,0.2 v 0 2.831 c 0,0.693 -0.184,1.196 -0.553,1.511 v 0 c -0.368,0.315 -0.879,0.473 -1.534,0.473 v 0 c -0.239,0 -0.497,-0.023 -0.775,-0.067 m 0.742,-3.989 c -0.11,0.008 -0.214,0.034 -0.311,0.075 v 0 c -0.099,0.041 -0.181,0.105 -0.251,0.193 v 0 c -0.069,0.09 -0.104,0.215 -0.104,0.378 v 0 c 0,0.245 0.09,0.424 0.269,0.533 v 0 c 0.18,0.111 0.424,0.166 0.732,0.166 v 0 c 0.069,0 0.148,-0.004 0.236,-0.014 v 0 c 0.088,-0.009 0.17,-0.02 0.246,-0.033 v 0 -1.246 c -0.069,-0.013 -0.151,-0.027 -0.246,-0.044 v 0 c -0.095,-0.015 -0.189,-0.023 -0.283,-0.023 v 0 c -0.082,0 -0.177,0.005 -0.288,0.015"
                 style="fill:url(#linearGradient363302);stroke:none"
                 id="path363304" />
            </g>
          </g>
        </g>
      </g>
      <g
         id="g363306">
        <g
           id="g363308">
          <g
             id="g363314">
            <g
               id="g363316">
              <path
                 d="m 207.142,515.391 c -0.293,-0.136 -0.539,-0.32 -0.737,-0.552 v 0 c -0.198,-0.232 -0.347,-0.507 -0.448,-0.821 v 0 c -0.101,-0.316 -0.151,-0.652 -0.151,-1.011 v 0 c 0,-0.365 0.048,-0.701 0.146,-1.011 v 0 c 0.098,-0.307 0.248,-0.573 0.453,-0.798 v 0 c 0.204,-0.222 0.469,-0.398 0.793,-0.524 v 0 c 0.325,-0.126 0.713,-0.188 1.166,-0.188 v 0 c 0.618,0 1.172,0.094 1.663,0.284 v 0 c -0.007,0.2 -0.035,0.389 -0.086,0.566 v 0 c -0.05,0.175 -0.11,0.327 -0.178,0.453 v 0 c -0.202,-0.075 -0.414,-0.134 -0.638,-0.175 v 0 c -0.223,-0.041 -0.442,-0.061 -0.656,-0.061 v 0 c -0.391,0 -0.705,0.084 -0.944,0.254 v 0 c -0.24,0.171 -0.373,0.445 -0.397,0.823 v 0 h 3.134 c 0.013,0.069 0.024,0.162 0.034,0.278 v 0 c 0.009,0.116 0.013,0.234 0.013,0.355 v 0 c 0,0.326 -0.047,0.633 -0.141,0.92 v 0 c -0.094,0.287 -0.234,0.534 -0.42,0.741 v 0 c -0.186,0.208 -0.411,0.371 -0.674,0.491 v 0 c -0.265,0.119 -0.567,0.18 -0.907,0.18 v 0 c -0.39,0 -0.732,-0.069 -1.025,-0.204 m 0.287,-1.081 c 0.165,0.176 0.404,0.264 0.718,0.264 v 0 c 0.278,0 0.493,-0.093 0.647,-0.278 v 0 c 0.155,-0.185 0.238,-0.43 0.251,-0.732 v 0 h -1.907 c 0.031,0.322 0.128,0.57 0.291,0.746"
                 style="fill:url(#linearGradient363322);stroke:none"
                 id="path363324" />
            </g>
          </g>
        </g>
      </g>
      <g
         id="g363326">
        <g
           id="g363328">
          <g
             id="g363334">
            <g
               id="g363336">
              <path
                 d="m 215.4,517.431 c -0.121,-0.009 -0.247,-0.024 -0.378,-0.043 v 0 l -2.144,-6.788 c 0.227,-0.038 0.456,-0.057 0.689,-0.057 v 0 c 0.208,0 0.425,0.019 0.652,0.057 v 0 l 0.388,1.359 h 2.246 l 0.378,-1.359 c 0.227,-0.038 0.459,-0.057 0.699,-0.057 v 0 c 0.244,0 0.496,0.019 0.756,0.057 v 0 l -2.125,6.788 c -0.145,0.019 -0.278,0.034 -0.397,0.043 v 0 c -0.119,0.01 -0.242,0.014 -0.368,0.014 v 0 c -0.144,0 -0.278,-0.004 -0.396,-0.014 m 0.348,-1.478 0.784,-2.851 h -1.604 z"
                 style="fill:url(#linearGradient363342);stroke:none"
                 id="path363344" />
            </g>
          </g>
        </g>
      </g>
      <g
         id="g363346">
        <g
           id="g363348">
          <g
             id="g363354">
            <g
               id="g363356">
              <path
                 d="m 224.044,515.335 c -0.229,-0.174 -0.408,-0.376 -0.534,-0.61 v 0 c -0.214,0.58 -0.701,0.87 -1.463,0.87 v 0 c -0.177,0 -0.335,-0.024 -0.477,-0.071 v 0 c -0.141,-0.047 -0.269,-0.109 -0.382,-0.184 v 0 c -0.114,-0.077 -0.211,-0.161 -0.294,-0.255 v 0 c -0.082,-0.095 -0.147,-0.19 -0.198,-0.283 v 0 c -0.005,0.044 -0.013,0.096 -0.023,0.16 v 0 c -0.01,0.062 -0.021,0.127 -0.034,0.193 v 0 c -0.012,0.067 -0.026,0.129 -0.041,0.189 v 0 c -0.017,0.06 -0.033,0.105 -0.052,0.137 v 0 c -0.089,0.019 -0.174,0.034 -0.255,0.043 v 0 c -0.082,0.01 -0.177,0.013 -0.284,0.013 v 0 c -0.106,0 -0.205,-0.003 -0.292,-0.013 v 0 c -0.089,-0.009 -0.177,-0.024 -0.264,-0.043 v 0 -4.881 c 0.225,-0.038 0.45,-0.057 0.669,-0.057 v 0 c 0.221,0 0.445,0.019 0.671,0.057 v 0 2.558 c 0,0.265 0.024,0.478 0.075,0.643 v 0 c 0.051,0.163 0.118,0.29 0.204,0.382 v 0 c 0.084,0.09 0.18,0.152 0.288,0.184 v 0 c 0.106,0.032 0.213,0.047 0.321,0.047 v 0 c 0.257,0 0.429,-0.092 0.515,-0.274 v 0 c 0.084,-0.182 0.127,-0.443 0.127,-0.784 v 0 -2.756 c 0.226,-0.038 0.45,-0.057 0.67,-0.057 v 0 c 0.22,0 0.444,0.019 0.67,0.057 v 0 2.633 c 0,0.247 0.027,0.446 0.081,0.601 v 0 c 0.053,0.153 0.122,0.273 0.207,0.359 v 0 c 0.085,0.084 0.18,0.142 0.283,0.174 v 0 c 0.104,0.032 0.209,0.047 0.317,0.047 v 0 c 0.258,0 0.429,-0.092 0.515,-0.274 v 0 c 0.084,-0.182 0.128,-0.443 0.128,-0.784 v 0 -2.756 c 0.226,-0.038 0.449,-0.057 0.669,-0.057 v 0 c 0.221,0 0.445,0.019 0.671,0.057 v 0 3.106 c 0,0.648 -0.131,1.125 -0.393,1.431 v 0 c -0.26,0.306 -0.668,0.458 -1.222,0.458 v 0 c -0.353,0 -0.643,-0.088 -0.873,-0.26"
                 style="fill:url(#linearGradient363362);stroke:none"
                 id="path363364" />
            </g>
          </g>
        </g>
      </g>
      <g
         id="g363366">
        <g
           id="g363368">
          <g
             id="g363374">
            <g
               id="g363376">
              <path
                 d="m 228.628,515.528 c -0.277,-0.044 -0.554,-0.113 -0.831,-0.208 v 0 c 0,-0.2 0.023,-0.373 0.066,-0.518 v 0 c 0.044,-0.146 0.111,-0.3 0.199,-0.463 v 0 c 0.383,0.132 0.746,0.198 1.085,0.198 v 0 c 0.158,0 0.301,-0.01 0.43,-0.029 v 0 c 0.129,-0.018 0.237,-0.055 0.326,-0.108 v 0 c 0.088,-0.054 0.158,-0.127 0.207,-0.222 v 0 c 0.051,-0.095 0.077,-0.217 0.077,-0.368 v 0 -0.113 c -0.221,0.018 -0.422,0.027 -0.605,0.027 v 0 c -0.252,0 -0.504,-0.026 -0.756,-0.08 v 0 c -0.251,-0.054 -0.479,-0.141 -0.684,-0.264 v 0 c -0.204,-0.123 -0.372,-0.286 -0.501,-0.492 v 0 c -0.128,-0.203 -0.193,-0.458 -0.193,-0.759 v 0 c 0,-0.302 0.052,-0.556 0.156,-0.765 v 0 c 0.103,-0.208 0.252,-0.377 0.443,-0.51 v 0 c 0.192,-0.132 0.422,-0.226 0.691,-0.283 v 0 c 0.266,-0.057 0.56,-0.085 0.882,-0.085 v 0 c 0.397,0 0.752,0.032 1.066,0.094 v 0 c 0.315,0.064 0.582,0.129 0.803,0.2 v 0 2.831 c 0,0.693 -0.184,1.196 -0.553,1.511 v 0 c -0.367,0.315 -0.878,0.473 -1.534,0.473 v 0 c -0.239,0 -0.497,-0.023 -0.774,-0.067 m 0.742,-3.989 c -0.11,0.008 -0.215,0.034 -0.311,0.075 v 0 c -0.099,0.041 -0.182,0.105 -0.251,0.193 v 0 c -0.069,0.09 -0.104,0.215 -0.104,0.378 v 0 c 0,0.245 0.09,0.424 0.269,0.533 v 0 c 0.18,0.111 0.423,0.166 0.731,0.166 v 0 c 0.07,0 0.149,-0.004 0.236,-0.014 v 0 c 0.088,-0.009 0.17,-0.02 0.247,-0.033 v 0 -1.246 c -0.07,-0.013 -0.152,-0.027 -0.247,-0.044 v 0 c -0.094,-0.015 -0.188,-0.023 -0.282,-0.023 v 0 c -0.082,0 -0.179,0.005 -0.288,0.015"
                 style="fill:url(#linearGradient363382);stroke:none"
                 id="path363384" />
            </g>
          </g>
        </g>
      </g>
      <g
         id="g363386">
        <g
           id="g363388">
          <g
             id="g363394">
            <g
               id="g363396">
              <path
                 d="m 234.794,515.524 c -0.144,-0.047 -0.276,-0.109 -0.392,-0.184 v 0 c -0.117,-0.077 -0.216,-0.162 -0.297,-0.26 v 0 c -0.082,-0.097 -0.152,-0.197 -0.208,-0.298 v 0 c -0.007,0.044 -0.014,0.1 -0.024,0.166 v 0 c -0.009,0.065 -0.021,0.133 -0.037,0.202 v 0 c -0.016,0.069 -0.032,0.134 -0.047,0.194 v 0 c -0.017,0.06 -0.033,0.105 -0.053,0.137 v 0 c -0.182,0.038 -0.361,0.056 -0.538,0.056 v 0 c -0.107,0 -0.203,-0.003 -0.288,-0.009 v 0 c -0.084,-0.005 -0.171,-0.018 -0.258,-0.038 v 0 -7.129 c 0.119,-0.019 0.234,-0.031 0.343,-0.037 v 0 c 0.11,-0.007 0.219,-0.009 0.326,-0.009 v 0 c 0.107,0 0.216,0.002 0.325,0.009 v 0 c 0.111,0.006 0.226,0.018 0.345,0.037 v 0 2.172 c 0.069,-0.012 0.157,-0.023 0.26,-0.033 v 0 c 0.104,-0.01 0.209,-0.014 0.316,-0.014 v 0 c 0.417,0 0.787,0.061 1.114,0.184 v 0 c 0.328,0.123 0.605,0.298 0.832,0.525 v 0 c 0.227,0.226 0.4,0.501 0.519,0.826 v 0 c 0.12,0.324 0.18,0.69 0.18,1.099 v 0 c 0,0.422 -0.049,0.787 -0.147,1.096 v 0 c -0.097,0.309 -0.234,0.565 -0.411,0.769 v 0 c -0.175,0.206 -0.382,0.358 -0.618,0.458 v 0 c -0.236,0.101 -0.489,0.152 -0.761,0.152 v 0 c -0.175,0 -0.336,-0.024 -0.481,-0.071 m -0.803,-3.887 v 1.663 c 0,0.157 0.017,0.305 0.048,0.444 v 0 c 0.031,0.138 0.081,0.259 0.152,0.363 v 0 c 0.068,0.104 0.157,0.186 0.268,0.246 v 0 c 0.111,0.059 0.244,0.09 0.401,0.09 v 0 c 0.171,0 0.313,-0.035 0.43,-0.104 v 0 c 0.116,-0.069 0.212,-0.165 0.288,-0.283 v 0 c 0.075,-0.121 0.129,-0.264 0.16,-0.43 v 0 c 0.031,-0.167 0.048,-0.349 0.048,-0.543 v 0 c 0,-0.51 -0.105,-0.891 -0.312,-1.142 v 0 c -0.208,-0.252 -0.507,-0.378 -0.897,-0.378 v 0 c -0.221,0 -0.415,0.025 -0.586,0.074"
                 style="fill:url(#linearGradient363402);stroke:none"
                 id="path363404" />
            </g>
          </g>
        </g>
      </g>
      <g
         id="g363406">
        <g
           id="g363408">
          <g
             id="g363414">
            <g
               id="g363416">
              <path
                 d="m 239.997,517.388 -1.058,-1.161 c 0.208,-0.037 0.412,-0.057 0.614,-0.057 v 0 c 0.126,0 0.246,0.007 0.359,0.02 v 0 c 0.113,0.012 0.211,0.025 0.294,0.037 v 0 l 1.425,1.161 c -0.127,0.019 -0.247,0.034 -0.364,0.043 v 0 c -0.117,0.01 -0.256,0.014 -0.421,0.014 v 0 c -0.314,0 -0.598,-0.018 -0.849,-0.057 m -0.859,-1.86 c -0.278,-0.044 -0.554,-0.113 -0.831,-0.208 v 0 c 0,-0.2 0.021,-0.373 0.065,-0.518 v 0 c 0.045,-0.146 0.11,-0.3 0.199,-0.463 v 0 c 0.384,0.132 0.746,0.198 1.085,0.198 v 0 c 0.157,0 0.302,-0.01 0.431,-0.029 v 0 c 0.127,-0.018 0.237,-0.055 0.325,-0.108 v 0 c 0.088,-0.054 0.157,-0.127 0.208,-0.222 v 0 c 0.051,-0.095 0.075,-0.217 0.075,-0.368 v 0 -0.113 c -0.22,0.018 -0.422,0.027 -0.604,0.027 v 0 c -0.252,0 -0.503,-0.026 -0.755,-0.08 v 0 c -0.252,-0.054 -0.481,-0.141 -0.685,-0.264 v 0 c -0.204,-0.123 -0.371,-0.286 -0.5,-0.492 v 0 c -0.13,-0.203 -0.194,-0.458 -0.194,-0.759 v 0 c 0,-0.302 0.052,-0.556 0.156,-0.765 v 0 c 0.103,-0.208 0.252,-0.377 0.444,-0.51 v 0 c 0.192,-0.132 0.422,-0.226 0.689,-0.283 v 0 c 0.267,-0.057 0.563,-0.085 0.883,-0.085 v 0 c 0.396,0 0.751,0.032 1.067,0.094 v 0 c 0.314,0.064 0.583,0.129 0.802,0.2 v 0 2.831 c 0,0.693 -0.183,1.196 -0.551,1.511 v 0 c -0.369,0.315 -0.881,0.473 -1.535,0.473 v 0 c -0.239,0 -0.498,-0.023 -0.774,-0.067 m 0.741,-3.989 c -0.111,0.008 -0.214,0.034 -0.312,0.075 v 0 c -0.098,0.041 -0.18,0.105 -0.25,0.193 v 0 c -0.069,0.09 -0.104,0.215 -0.104,0.378 v 0 c 0,0.245 0.09,0.424 0.27,0.533 v 0 c 0.178,0.111 0.422,0.166 0.731,0.166 v 0 c 0.069,0 0.148,-0.004 0.236,-0.014 v 0 c 0.088,-0.009 0.17,-0.02 0.245,-0.033 v 0 -1.246 c -0.069,-0.013 -0.151,-0.027 -0.245,-0.044 v 0 c -0.094,-0.015 -0.189,-0.023 -0.283,-0.023 v 0 c -0.082,0 -0.178,0.005 -0.288,0.015"
                 style="fill:url(#linearGradient363422);stroke:none"
                 id="path363424" />
            </g>
          </g>
        </g>
      </g>
    </g>
  </g>
</svg>
